<svg width="68" height="16" viewBox="0 0 68 16" fill="none" xmlns="http://www.w3.org/2000/svg">
  <path d="M9.018 7.726C8.784 7.582 8.532 7.456 8.28 7.33C7.992 7.222 7.722 7.132 7.47 7.042C7.182 6.97 6.93 6.898 6.678 6.844C6.408 6.808 6.174 6.772 5.994 6.772C5.148 6.772 4.734 6.988 4.734 7.402C4.734 7.618 4.824 7.762 5.022 7.87C5.202 7.978 5.454 8.086 5.778 8.158L7.596 8.698C8.172 8.896 8.676 9.13 9.144 9.4C9.576 9.688 9.936 10.03 10.206 10.426C10.458 10.84 10.602 11.344 10.602 11.92C10.602 12.568 10.476 13.108 10.224 13.576C9.954 14.044 9.612 14.422 9.18 14.728C8.73 15.016 8.208 15.25 7.632 15.394C7.02 15.538 6.39 15.61 5.742 15.61C4.842 15.61 3.96 15.484 3.114 15.232C2.25 14.962 1.422 14.566 0.63 14.026L1.944 11.452C2.16 11.632 2.412 11.776 2.7 11.92C2.988 12.082 3.276 12.208 3.6 12.316C3.906 12.424 4.23 12.514 4.554 12.568C4.878 12.64 5.184 12.676 5.472 12.676C5.976 12.694 6.336 12.64 6.552 12.532C6.75 12.442 6.858 12.262 6.858 12.01C6.858 11.758 6.714 11.578 6.426 11.434C6.138 11.308 5.796 11.182 5.4 11.074C4.716 10.894 4.122 10.714 3.582 10.498C3.042 10.318 2.574 10.066 2.214 9.778C1.818 9.49 1.53 9.148 1.332 8.752C1.116 8.356 0.99 7.87 0.99 7.294C0.972 6.682 1.098 6.16 1.386 5.728C1.638 5.296 1.998 4.954 2.448 4.666C2.88 4.396 3.384 4.198 3.96 4.054C4.5 3.928 5.076 3.856 5.652 3.856C6.588 3.856 7.452 4 8.208 4.288C8.964 4.576 9.63 4.9 10.224 5.26L9.018 7.726ZM11.1748 9.76C11.1748 8.86 11.3368 8.032 11.6968 7.294C12.0208 6.574 12.4888 5.944 13.0828 5.422C13.6588 4.918 14.3248 4.54 15.1168 4.252C15.8728 4 16.7008 3.856 17.5828 3.856C18.4648 3.856 19.2928 4 20.0848 4.252C20.8588 4.54 21.5428 4.918 22.1188 5.422C22.6948 5.926 23.1448 6.556 23.4868 7.276C23.8108 8.014 23.9908 8.842 23.9908 9.742C23.9908 10.642 23.8108 11.452 23.4868 12.172C23.1448 12.91 22.6948 13.522 22.1188 14.044C21.5428 14.548 20.8588 14.926 20.0848 15.214C19.2928 15.466 18.4648 15.61 17.5828 15.61C16.7008 15.61 15.8728 15.466 15.1168 15.214C14.3248 14.926 13.6588 14.548 13.0828 14.044C12.4888 13.54 12.0208 12.928 11.6968 12.19C11.3368 11.47 11.1748 10.66 11.1748 9.76ZM17.5828 12.532C17.9788 12.532 18.3568 12.46 18.6988 12.316C19.0228 12.172 19.3108 11.974 19.5448 11.722C19.7608 11.488 19.9408 11.2 20.0848 10.858C20.1928 10.534 20.2648 10.156 20.2648 9.76C20.2648 9.364 20.1928 8.986 20.0848 8.626C19.9408 8.302 19.7608 7.996 19.5448 7.744C19.3108 7.492 19.0228 7.294 18.6988 7.15C18.3568 7.024 17.9788 6.952 17.5828 6.952C17.1508 6.952 16.7908 7.024 16.4668 7.168C16.1248 7.312 15.8368 7.51 15.6208 7.762C15.3688 8.014 15.1888 8.32 15.0808 8.644C14.9548 9.004 14.9008 9.364 14.9008 9.76C14.9008 10.156 14.9548 10.534 15.0808 10.858C15.1888 11.2 15.3688 11.488 15.6208 11.722C15.8368 11.974 16.1248 12.172 16.4668 12.316C16.7908 12.46 17.1508 12.532 17.5828 12.532ZM33.9677 0.723999H37.6937V15.07H34.4897L34.2017 14.206C33.6977 14.62 33.1217 14.926 32.5097 15.142C31.8617 15.34 31.2137 15.43 30.5477 15.43C29.7017 15.412 28.9277 15.268 28.2437 14.98C27.5417 14.692 26.9477 14.296 26.4437 13.792C25.9397 13.288 25.5437 12.694 25.2737 12.01C24.9857 11.326 24.8597 10.588 24.8597 9.76C24.8597 8.932 25.0037 8.158 25.3097 7.438C25.5977 6.754 25.9937 6.142 26.5157 5.638C27.0197 5.134 27.6137 4.738 28.3157 4.45C28.9997 4.18 29.7377 4.036 30.5297 4.036C31.1777 4.036 31.7897 4.126 32.3657 4.27C32.9237 4.432 33.4637 4.684 33.9677 5.008V0.723999ZM31.1057 12.334C31.8617 12.334 32.4557 12.1 32.9237 11.614C33.3737 11.146 33.6077 10.516 33.6077 9.76C33.6077 8.968 33.3737 8.338 32.9237 7.852C32.4557 7.384 31.8617 7.15 31.1057 7.15C30.3497 7.15 29.7377 7.384 29.2877 7.852C28.8197 8.338 28.6037 8.968 28.6037 9.76C28.6037 10.516 28.8197 11.146 29.2877 11.614C29.7377 12.1 30.3497 12.334 31.1057 12.334ZM39.1423 9.76C39.1423 8.86 39.3043 8.032 39.6643 7.294C39.9883 6.574 40.4563 5.944 41.0503 5.422C41.6263 4.918 42.2923 4.54 43.0843 4.252C43.8403 4 44.6683 3.856 45.5503 3.856C46.4323 3.856 47.2603 4 48.0523 4.252C48.8263 4.54 49.5103 4.918 50.0863 5.422C50.6623 5.926 51.1123 6.556 51.4543 7.276C51.7783 8.014 51.9583 8.842 51.9583 9.742C51.9583 10.642 51.7783 11.452 51.4543 12.172C51.1123 12.91 50.6623 13.522 50.0863 14.044C49.5103 14.548 48.8263 14.926 48.0523 15.214C47.2603 15.466 46.4323 15.61 45.5503 15.61C44.6683 15.61 43.8403 15.466 43.0843 15.214C42.2923 14.926 41.6263 14.548 41.0503 14.044C40.4563 13.54 39.9883 12.928 39.6643 12.19C39.3043 11.47 39.1423 10.66 39.1423 9.76ZM45.5503 12.532C45.9463 12.532 46.3243 12.46 46.6663 12.316C46.9903 12.172 47.2783 11.974 47.5123 11.722C47.7283 11.488 47.9083 11.2 48.0523 10.858C48.1603 10.534 48.2323 10.156 48.2323 9.76C48.2323 9.364 48.1603 8.986 48.0523 8.626C47.9083 8.302 47.7283 7.996 47.5123 7.744C47.2783 7.492 46.9903 7.294 46.6663 7.15C46.3243 7.024 45.9463 6.952 45.5503 6.952C45.1183 6.952 44.7583 7.024 44.4343 7.168C44.0923 7.312 43.8043 7.51 43.5883 7.762C43.3363 8.014 43.1563 8.32 43.0483 8.644C42.9223 9.004 42.8683 9.364 42.8683 9.76C42.8683 10.156 42.9223 10.534 43.0483 10.858C43.1563 11.2 43.3363 11.488 43.5883 11.722C43.8043 11.974 44.0923 12.172 44.4343 12.316C44.7583 12.46 45.1183 12.532 45.5503 12.532ZM60.9452 7.726C60.7112 7.582 60.4592 7.456 60.2072 7.33C59.9192 7.222 59.6492 7.132 59.3972 7.042C59.1092 6.97 58.8572 6.898 58.6052 6.844C58.3352 6.808 58.1012 6.772 57.9212 6.772C57.0752 6.772 56.6612 6.988 56.6612 7.402C56.6612 7.618 56.7512 7.762 56.9492 7.87C57.1292 7.978 57.3812 8.086 57.7052 8.158L59.5232 8.698C60.0992 8.896 60.6032 9.13 61.0712 9.4C61.5032 9.688 61.8632 10.03 62.1332 10.426C62.3852 10.84 62.5292 11.344 62.5292 11.92C62.5292 12.568 62.4032 13.108 62.1512 13.576C61.8812 14.044 61.5392 14.422 61.1072 14.728C60.6572 15.016 60.1352 15.25 59.5592 15.394C58.9472 15.538 58.3172 15.61 57.6692 15.61C56.7692 15.61 55.8872 15.484 55.0412 15.232C54.1772 14.962 53.3492 14.566 52.5572 14.026L53.8712 11.452C54.0872 11.632 54.3392 11.776 54.6272 11.92C54.9152 12.082 55.2032 12.208 55.5272 12.316C55.8332 12.424 56.1572 12.514 56.4812 12.568C56.8052 12.64 57.1112 12.676 57.3992 12.676C57.9032 12.694 58.2632 12.64 58.4792 12.532C58.6772 12.442 58.7852 12.262 58.7852 12.01C58.7852 11.758 58.6412 11.578 58.3532 11.434C58.0652 11.308 57.7232 11.182 57.3272 11.074C56.6432 10.894 56.0492 10.714 55.5092 10.498C54.9692 10.318 54.5012 10.066 54.1412 9.778C53.7452 9.49 53.4572 9.148 53.2592 8.752C53.0432 8.356 52.9172 7.87 52.9172 7.294C52.8992 6.682 53.0252 6.16 53.3132 5.728C53.5652 5.296 53.9252 4.954 54.3752 4.666C54.8072 4.396 55.3112 4.198 55.8872 4.054C56.4272 3.928 57.0032 3.856 57.5792 3.856C58.5152 3.856 59.3792 4 60.1352 4.288C60.8912 4.576 61.5572 4.9 62.1512 5.26L60.9452 7.726ZM67.7509 4.396V15.07H64.0069V4.396H67.7509ZM67.7509 0.219999V3.316H64.0069V0.219999H67.7509Z" fill="black"/>
</svg>
