<svg width="42" height="70" viewBox="0 0 42 70" fill="none" xmlns="http://www.w3.org/2000/svg">
  <path fill-rule="evenodd" clip-rule="evenodd" d="M21 58.5789C29.8421 58.5789 42 32.3215 42 20.8219C42 9.32228 32.598 0 21 0C9.40202 0 0 9.32228 0 20.8219C0 32.3215 12.1579 58.5789 21 58.5789ZM20.9997 28.4931C25.2726 28.4931 28.7365 25.0586 28.7365 20.8219C28.7365 16.5852 25.2726 13.1507 20.9997 13.1507C16.7267 13.1507 13.2628 16.5852 13.2628 20.8219C13.2628 25.0586 16.7267 28.4931 20.9997 28.4931Z" fill="#01F700"/>
  <path opacity="0.3" d="M21.5 70C30.0604 70 37 65.299 37 59.5C37 53.701 30.0604 49 21.5 49C12.9396 49 6 53.701 6 59.5C6 65.299 12.9396 70 21.5 70Z" fill="#01F700"/>
</svg>
