<svg width="18" height="18" viewBox="0 0 18 18" fill="none" xmlns="http://www.w3.org/2000/svg">
  <path d="M9 12C10.2426 12 11.25 10.9926 11.25 9.75C11.25 8.50736 10.2426 7.5 9 7.5C7.75736 7.5 6.75 8.50736 6.75 9.75C6.75 10.9926 7.75736 12 9 12Z" stroke="#C7C7CC" stroke-width="1.5" stroke-linecap="round" stroke-linejoin="round"/>
  <path d="M15 5.25H3C2.58579 5.25 2.25 5.58579 2.25 6V13.5C2.25 13.9142 2.58579 14.25 3 14.25H15C15.4142 14.25 15.75 13.9142 15.75 13.5V6C15.75 5.58579 15.4142 5.25 15 5.25Z" stroke="#C7C7CC" stroke-width="1.5" stroke-linecap="round" stroke-linejoin="round"/>
  <path d="M10.7095 3H7.29061C6.96779 3 6.68119 3.20657 6.5791 3.51283L6.3291 4.26283C6.16722 4.74848 6.5287 5.25 7.04061 5.25H10.9595C11.4714 5.25 11.8329 4.74848 11.671 4.26283L11.421 3.51283C11.3189 3.20657 11.0323 3 10.7095 3Z" stroke="#C7C7CC" stroke-width="1.5" stroke-linecap="round" stroke-linejoin="round"/>
</svg>
