<svg width="20" height="20" viewBox="0 0 20 20" fill="none" xmlns="http://www.w3.org/2000/svg">
  <path d="M3.33301 16.6667H16.6663" stroke="#C7C7CC" stroke-width="1.66667" stroke-linecap="round" stroke-linejoin="round"/>
  <path d="M6.66634 16.6666V17.5C6.88736 17.5 7.09932 17.4122 7.2556 17.2559L6.66634 16.6666ZM3.33301 16.6666H2.49967C2.49967 17.1269 2.87277 17.5 3.33301 17.5V16.6666ZM3.33301 13.3333L2.74375 12.744C2.58747 12.9003 2.49967 13.1123 2.49967 13.3333H3.33301ZM12.7438 3.92254L13.333 4.5118V4.5118L12.7438 3.92254ZM13.9223 3.92254L13.333 4.5118V4.5118L13.9223 3.92254ZM16.0771 6.07737L16.6663 5.48811V5.48811L16.0771 6.07737ZM16.0771 7.25588L15.4878 6.66662L16.0771 7.25588ZM6.66634 15.8333H3.33301V17.5H6.66634V15.8333ZM4.16634 16.6666V13.3333H2.49967V16.6666H4.16634ZM3.92226 13.9225L13.333 4.5118L12.1545 3.33329L2.74375 12.744L3.92226 13.9225ZM13.333 4.5118L15.4878 6.66662L16.6663 5.48811L14.5115 3.33329L13.333 4.5118ZM15.4878 6.66662L6.07709 16.0774L7.2556 17.2559L16.6663 7.84513L15.4878 6.66662ZM15.4878 6.66662L15.4878 6.66662L16.6663 7.84513C17.3172 7.19426 17.3172 6.13899 16.6663 5.48811L15.4878 6.66662ZM13.333 4.5118H13.333L14.5115 3.33329C13.8606 2.68241 12.8054 2.68241 12.1545 3.33329L13.333 4.5118Z" fill="#C7C7CC"/>
</svg>
