<svg width="16" height="16" viewBox="0 0 16 16" fill="none" xmlns="http://www.w3.org/2000/svg">
  <path d="M6.4714 2.86192C6.21105 2.60157 5.78895 2.60157 5.5286 2.86192C5.26825 3.12227 5.26825 3.54438 5.5286 3.80473L6.4714 2.86192ZM10.6667 8L11.1381 8.4714C11.3984 8.21105 11.3984 7.78894 11.1381 7.52859L10.6667 8ZM5.5286 12.1953C5.26825 12.4556 5.26825 12.8777 5.5286 13.1381C5.78895 13.3984 6.21105 13.3984 6.4714 13.1381L5.5286 12.1953ZM5.5286 3.80473L10.1953 8.4714L11.1381 7.52859L6.4714 2.86192L5.5286 3.80473ZM10.1953 7.52859L5.5286 12.1953L6.4714 13.1381L11.1381 8.4714L10.1953 7.52859Z" fill="black"/>
</svg>
