<svg width="24" height="24" viewBox="0 0 24 24" fill="none" xmlns="http://www.w3.org/2000/svg">
  <path d="M20.1604 6.71135L12.5001 2.2887C12.1907 2.11007 11.8095 2.11007 11.5001 2.2887L3.83984 6.71135C3.53044 6.88998 3.33984 7.22011 3.33984 7.57737V16.4227C3.33984 16.7799 3.53044 17.1101 3.83984 17.2887L11.5001 21.7113C11.8095 21.89 12.1907 21.89 12.5001 21.7113L20.1604 17.2887C20.4698 17.1101 20.6604 16.7799 20.6604 16.4227V7.57737C20.6604 7.22011 20.4698 6.88998 20.1604 6.71135Z" stroke="black" stroke-width="2" stroke-linecap="round" stroke-linejoin="round"/>
  <path d="M12 15C13.6569 15 15 13.6569 15 12C15 10.3431 13.6569 9 12 9C10.3431 9 9 10.3431 9 12C9 13.6569 10.3431 15 12 15Z" stroke="black" stroke-width="2" stroke-linecap="round" stroke-linejoin="round"/>
</svg>
