<svg width="28" height="28" viewBox="0 0 28 28" fill="none" xmlns="http://www.w3.org/2000/svg">
  <path d="M12.769 0.326782C10.1888 0.557503 7.66745 1.56046 5.52713 3.20742C4.94249 3.65794 3.66037 4.94006 3.20957 5.52498C1.46629 7.78878 0.511205 10.2833 0.312685 13.1317C0.210765 14.5586 0.344885 15.9589 0.725685 17.4661C1.66453 21.1462 4.24473 24.381 7.64589 26.1565C12.1038 28.4847 17.4039 28.2058 21.5826 25.4268C26.4804 22.1707 28.7442 16.2591 27.2798 10.5406C26.9634 9.31226 26.4053 7.9817 25.74 6.89278C24.6402 5.09042 22.9451 3.3897 21.159 2.29014C18.67 0.766661 15.6872 0.0694637 12.769 0.326782ZM11.0792 7.26294C12.4151 7.8851 12.71 10.5459 11.5782 11.7799C10.4408 13.0192 8.85857 11.8015 8.85297 9.6771C8.85297 8.31462 9.64677 7.13442 10.5696 7.13442C10.7091 7.13442 10.9236 7.1879 11.0792 7.26294ZM17.9457 7.26294C19.2816 7.8851 19.5764 10.5459 18.4446 11.7799C17.5218 12.7885 16.2399 12.2038 15.8213 10.5784C15.6228 9.8059 15.7247 8.83486 16.068 8.15362C16.3738 7.55274 16.9315 7.13442 17.4358 7.13442C17.5755 7.13442 17.79 7.1879 17.9457 7.26294ZM6.75017 14.1456C7.02373 14.3495 7.09345 14.4995 7.14189 14.9985C7.24381 16.023 7.47985 16.6989 8.01633 17.5143C9.29313 19.4295 11.8627 20.867 14.003 20.867C15.65 20.867 17.5971 20.0195 18.9705 18.7051C20.1507 17.5787 20.7406 16.4413 20.8641 15.0573C20.9123 14.4939 20.9714 14.3545 21.2665 14.14C21.3737 14.0543 21.4916 14.0275 21.7279 14.0275C22.2375 14.0275 22.538 14.317 22.5755 14.8535C22.6558 15.9317 22.125 17.5196 21.3096 18.6623C19.9846 20.5131 17.8174 21.9293 15.5483 22.428C14.9046 22.5675 13.6922 22.6212 13.086 22.5353C10.1244 22.1063 7.31353 20.1376 6.08489 17.6218C5.74693 16.9243 5.56465 16.3181 5.47337 15.5941C5.36081 14.6927 5.46805 14.3119 5.91325 14.0865C6.13865 13.974 6.55697 14.0009 6.75017 14.1456Z" fill="#C7C7CC"/>
</svg>
