<svg width="14" height="17" viewBox="0 0 14 17" fill="none" xmlns="http://www.w3.org/2000/svg">
  <path fill-rule="evenodd" clip-rule="evenodd" d="M4 5C4 3.34315 5.34315 2 7 2C8.65685 2 10 3.34315 10 5C10 6.65685 8.65685 8 7 8C5.34315 8 4 6.65685 4 5ZM7 0C4.23858 0 2 2.23858 2 5C2 7.76142 4.23858 10 7 10C9.76142 10 12 7.76142 12 5C12 2.23858 9.76142 0 7 0ZM2 16C2 15.3338 2.40506 14.6083 3.31206 14.0036C4.21207 13.4036 5.51303 13 7 13C8.48697 13 9.78793 13.4036 10.6879 14.0036C11.5949 14.6083 12 15.3338 12 16C12 16.5523 12.4477 17 13 17C13.5523 17 14 16.5523 14 16C14 14.457 13.0619 13.1826 11.7973 12.3395C10.5258 11.4918 8.82674 11 7 11C5.17326 11 3.47422 11.4918 2.20266 12.3395C0.938089 13.1826 0 14.457 0 16C0 16.5523 0.447715 17 1 17C1.55228 17 2 16.5523 2 16Z" fill="black"/>
</svg>
